jjj<mxfile host="app.diagrams.net" agent="Mozilla/5.0 (Windows NT 10.0; Win64; x64) AppleWebKit/537.36 (KHTML, like Gecko) Chrome/139.0.0.0 Safari/537.36" version="28.1.1">
  <diagram name="Page-1" id="YMC9F8G372BrZWPBgGKm">
    <mxGraphModel dx="786" dy="451" grid="1" gridSize="10" guides="1" tooltips="1" connect="1" arrows="1" fold="1" page="1" pageScale="1" pageWidth="850" pageHeight="1100" math="0" shadow="0">
      <root>
        <mxCell id="0" />
        <mxCell id="1" parent="0" />
        <mxCell id="T94hp-auauXWxFZuI3a6-1" value="" style="rounded=0;whiteSpace=wrap;html=1;" vertex="1" parent="1">
          <mxGeometry x="210" y="10" width="330" height="50" as="geometry" />
        </mxCell>
        <mxCell id="T94hp-auauXWxFZuI3a6-2" value="" style="rounded=0;whiteSpace=wrap;html=1;" vertex="1" parent="1">
          <mxGeometry x="600" y="50" width="120" height="40" as="geometry" />
        </mxCell>
        <mxCell id="T94hp-auauXWxFZuI3a6-7" style="edgeStyle=orthogonalEdgeStyle;rounded=0;orthogonalLoop=1;jettySize=auto;html=1;exitX=0.5;exitY=0;exitDx=0;exitDy=0;" edge="1" parent="1" source="T94hp-auauXWxFZuI3a6-3">
          <mxGeometry relative="1" as="geometry">
            <mxPoint x="660" y="130" as="targetPoint" />
          </mxGeometry>
        </mxCell>
        <mxCell id="T94hp-auauXWxFZuI3a6-3" value="" style="rounded=0;whiteSpace=wrap;html=1;" vertex="1" parent="1">
          <mxGeometry x="600" y="110" width="120" height="40" as="geometry" />
        </mxCell>
        <mxCell id="T94hp-auauXWxFZuI3a6-4" value="" style="rounded=0;whiteSpace=wrap;html=1;" vertex="1" parent="1">
          <mxGeometry x="600" y="170" width="120" height="40" as="geometry" />
        </mxCell>
        <mxCell id="T94hp-auauXWxFZuI3a6-5" value="" style="rounded=0;whiteSpace=wrap;html=1;" vertex="1" parent="1">
          <mxGeometry x="600" y="240" width="120" height="40" as="geometry" />
        </mxCell>
        <mxCell id="T94hp-auauXWxFZuI3a6-6" value="" style="rounded=0;whiteSpace=wrap;html=1;" vertex="1" parent="1">
          <mxGeometry x="600" y="310" width="120" height="40" as="geometry" />
        </mxCell>
        <mxCell id="T94hp-auauXWxFZuI3a6-8" value="" style="rounded=0;whiteSpace=wrap;html=1;" vertex="1" parent="1">
          <mxGeometry x="600" y="380" width="120" height="40" as="geometry" />
        </mxCell>
        <mxCell id="T94hp-auauXWxFZuI3a6-9" value="" style="rounded=0;whiteSpace=wrap;html=1;" vertex="1" parent="1">
          <mxGeometry x="40" y="90" width="120" height="40" as="geometry" />
        </mxCell>
        <mxCell id="T94hp-auauXWxFZuI3a6-10" value="" style="ellipse;whiteSpace=wrap;html=1;aspect=fixed;" vertex="1" parent="1">
          <mxGeometry x="60" y="160" width="80" height="80" as="geometry" />
        </mxCell>
        <mxCell id="T94hp-auauXWxFZuI3a6-11" value="" style="ellipse;whiteSpace=wrap;html=1;aspect=fixed;" vertex="1" parent="1">
          <mxGeometry x="60" y="280" width="80" height="80" as="geometry" />
        </mxCell>
        <mxCell id="T94hp-auauXWxFZuI3a6-12" value="" style="rounded=0;whiteSpace=wrap;html=1;" vertex="1" parent="1">
          <mxGeometry x="20" y="440" width="120" height="40" as="geometry" />
        </mxCell>
        <mxCell id="T94hp-auauXWxFZuI3a6-13" value="" style="rounded=0;whiteSpace=wrap;html=1;" vertex="1" parent="1">
          <mxGeometry x="240" y="440" width="120" height="40" as="geometry" />
        </mxCell>
        <mxCell id="T94hp-auauXWxFZuI3a6-14" value="" style="rounded=0;whiteSpace=wrap;html=1;" vertex="1" parent="1">
          <mxGeometry x="425" y="440" width="120" height="40" as="geometry" />
        </mxCell>
        <mxCell id="T94hp-auauXWxFZuI3a6-15" value="" style="ellipse;whiteSpace=wrap;html=1;aspect=fixed;" vertex="1" parent="1">
          <mxGeometry x="240" y="80" width="80" height="80" as="geometry" />
        </mxCell>
        <mxCell id="T94hp-auauXWxFZuI3a6-16" value="" style="ellipse;whiteSpace=wrap;html=1;aspect=fixed;" vertex="1" parent="1">
          <mxGeometry x="410" y="80" width="80" height="80" as="geometry" />
        </mxCell>
        <mxCell id="T94hp-auauXWxFZuI3a6-17" value="" style="ellipse;whiteSpace=wrap;html=1;aspect=fixed;" vertex="1" parent="1">
          <mxGeometry x="240" y="200" width="80" height="80" as="geometry" />
        </mxCell>
        <mxCell id="T94hp-auauXWxFZuI3a6-18" value="" style="ellipse;whiteSpace=wrap;html=1;aspect=fixed;" vertex="1" parent="1">
          <mxGeometry x="410" y="200" width="80" height="80" as="geometry" />
        </mxCell>
        <mxCell id="T94hp-auauXWxFZuI3a6-22" value="" style="endArrow=classic;html=1;rounded=0;entryX=0.75;entryY=0;entryDx=0;entryDy=0;" edge="1" parent="1" source="T94hp-auauXWxFZuI3a6-18" target="T94hp-auauXWxFZuI3a6-12">
          <mxGeometry width="50" height="50" relative="1" as="geometry">
            <mxPoint x="310" y="360" as="sourcePoint" />
            <mxPoint x="360" y="310" as="targetPoint" />
          </mxGeometry>
        </mxCell>
        <mxCell id="T94hp-auauXWxFZuI3a6-23" value="" style="endArrow=classic;html=1;rounded=0;entryX=0.408;entryY=-0.025;entryDx=0;entryDy=0;entryPerimeter=0;" edge="1" parent="1" source="T94hp-auauXWxFZuI3a6-18" target="T94hp-auauXWxFZuI3a6-13">
          <mxGeometry width="50" height="50" relative="1" as="geometry">
            <mxPoint x="380" y="340" as="sourcePoint" />
            <mxPoint x="430" y="290" as="targetPoint" />
          </mxGeometry>
        </mxCell>
        <mxCell id="T94hp-auauXWxFZuI3a6-24" value="" style="endArrow=classic;html=1;rounded=0;exitX=0.5;exitY=1;exitDx=0;exitDy=0;entryX=0.375;entryY=0.05;entryDx=0;entryDy=0;entryPerimeter=0;" edge="1" parent="1" source="T94hp-auauXWxFZuI3a6-18" target="T94hp-auauXWxFZuI3a6-14">
          <mxGeometry width="50" height="50" relative="1" as="geometry">
            <mxPoint x="380" y="340" as="sourcePoint" />
            <mxPoint x="470" y="430" as="targetPoint" />
          </mxGeometry>
        </mxCell>
        <mxCell id="T94hp-auauXWxFZuI3a6-26" value="" style="endArrow=classic;html=1;rounded=0;exitX=1;exitY=0;exitDx=0;exitDy=0;entryX=0;entryY=0.5;entryDx=0;entryDy=0;" edge="1" parent="1" source="T94hp-auauXWxFZuI3a6-18" target="T94hp-auauXWxFZuI3a6-2">
          <mxGeometry width="50" height="50" relative="1" as="geometry">
            <mxPoint x="380" y="160" as="sourcePoint" />
            <mxPoint x="430" y="110" as="targetPoint" />
          </mxGeometry>
        </mxCell>
        <mxCell id="T94hp-auauXWxFZuI3a6-27" value="" style="edgeStyle=none;orthogonalLoop=1;jettySize=auto;html=1;rounded=0;entryX=0;entryY=0.75;entryDx=0;entryDy=0;exitX=1.013;exitY=0.338;exitDx=0;exitDy=0;exitPerimeter=0;" edge="1" parent="1" source="T94hp-auauXWxFZuI3a6-18" target="T94hp-auauXWxFZuI3a6-3">
          <mxGeometry width="100" relative="1" as="geometry">
            <mxPoint x="440" y="220" as="sourcePoint" />
            <mxPoint x="540" y="220" as="targetPoint" />
            <Array as="points" />
          </mxGeometry>
        </mxCell>
      </root>
    </mxGraphModel>
  </diagram>
</mxfile>
